<svg width="99" height="33" viewBox="0 0 99 33" fill="none" xmlns="http://www.w3.org/2000/svg">
<g clip-path="url(#clip0_18_131)">
<path d="M0 16.5C0 7.3873 7.3873 0 16.5 0H82.5C91.6127 0 99 7.3873 99 16.5C99 25.6127 91.6127 33 82.5 33H16.5C7.3873 33 0 25.6127 0 16.5Z" fill="#1F0152"/>
<path d="M0 17C0 8.71573 6.71573 2 15 2C23.2843 2 30 8.71573 30 17C30 25.2843 23.2843 32 15 32C6.71573 32 0 25.2843 0 17Z" fill="white"/>
<path d="M20.25 17V22.25H9.75V17H8.25V22.25C8.25 23.075 8.925 23.75 9.75 23.75H20.25C21.075 23.75 21.75 23.075 21.75 22.25V17H20.25ZM15.75 17.5025L17.6925 15.5675L18.75 16.625L15 20.375L11.25 16.625L12.3075 15.5675L14.25 17.5025V10.25H15.75V17.5025Z" fill="#5367FF"/>
<path d="M35.6426 12.3125C35.7754 12.3125 35.8691 12.3438 35.9238 12.4062C35.9824 12.4648 36.0117 12.5664 36.0117 12.7109V19.2031H36.4922C36.625 19.2031 36.7188 19.2344 36.7734 19.2969C36.832 19.3555 36.8613 19.457 36.8613 19.6016C36.8613 19.7461 36.832 19.8496 36.7734 19.9121C36.7188 19.9707 36.625 20 36.4922 20H35.5605C35.4277 20 35.332 19.9707 35.2734 19.9121C35.2188 19.8496 35.1914 19.7461 35.1914 19.6016V19.1328C34.9453 19.4531 34.6602 19.6992 34.3359 19.8711C34.0117 20.043 33.6582 20.1289 33.2754 20.1289C32.791 20.1289 32.3574 20.0156 31.9746 19.7891C31.5918 19.5586 31.291 19.2305 31.0723 18.8047C30.8535 18.375 30.7441 17.8711 30.7441 17.293C30.7441 16.7148 30.8535 16.2129 31.0723 15.7871C31.291 15.3574 31.5918 15.0293 31.9746 14.8027C32.3574 14.5723 32.791 14.457 33.2754 14.457C34.0098 14.457 34.6289 14.7793 35.1328 15.4238V13.1094H34.1836C34.0508 13.1094 33.9551 13.0801 33.8965 13.0215C33.8418 12.959 33.8145 12.8555 33.8145 12.7109C33.8145 12.5664 33.8418 12.4648 33.8965 12.4062C33.9551 12.3438 34.0508 12.3125 34.1836 12.3125H35.6426ZM33.334 15.3242C32.9863 15.3242 32.6875 15.4082 32.4375 15.5762C32.1875 15.7402 31.9961 15.9707 31.8633 16.2676C31.7344 16.5645 31.6699 16.9062 31.6699 17.293C31.6699 17.6797 31.7344 18.0215 31.8633 18.3184C31.9961 18.6152 32.1875 18.8477 32.4375 19.0156C32.6875 19.1797 32.9863 19.2617 33.334 19.2617C33.6816 19.2617 33.9902 19.1836 34.2598 19.0273C34.5332 18.8711 34.7461 18.6445 34.8984 18.3477C35.0547 18.0508 35.1328 17.6992 35.1328 17.293C35.1328 16.8867 35.0547 16.5352 34.8984 16.2383C34.7461 15.9414 34.5332 15.7148 34.2598 15.5586C33.9902 15.4023 33.6816 15.3242 33.334 15.3242ZM40.793 14.457C41.3281 14.457 41.8105 14.5781 42.2402 14.8203C42.6699 15.0625 43.0059 15.4004 43.248 15.834C43.4941 16.2637 43.6172 16.75 43.6172 17.293C43.6172 17.8359 43.4941 18.3242 43.248 18.7578C43.0059 19.1875 42.6699 19.5234 42.2402 19.7656C41.8105 20.0078 41.3281 20.1289 40.793 20.1289C40.2578 20.1289 39.7754 20.0078 39.3457 19.7656C38.916 19.5234 38.5781 19.1875 38.332 18.7578C38.0898 18.3242 37.9688 17.8359 37.9688 17.293C37.9688 16.75 38.0898 16.2637 38.332 15.834C38.5781 15.4004 38.916 15.0625 39.3457 14.8203C39.7754 14.5781 40.2578 14.457 40.793 14.457ZM40.793 15.3242C40.4141 15.3242 40.0801 15.4082 39.791 15.5762C39.5059 15.7402 39.2852 15.9727 39.1289 16.2734C38.9727 16.5703 38.8945 16.9102 38.8945 17.293C38.8945 17.6758 38.9727 18.0176 39.1289 18.3184C39.2852 18.6152 39.5059 18.8477 39.791 19.0156C40.0801 19.1797 40.4141 19.2617 40.793 19.2617C41.1719 19.2617 41.5039 19.1797 41.7891 19.0156C42.0781 18.8477 42.3008 18.6152 42.457 18.3184C42.6133 18.0176 42.6914 17.6758 42.6914 17.293C42.6914 16.9102 42.6133 16.5703 42.457 16.2734C42.3008 15.9727 42.0781 15.7402 41.7891 15.5762C41.5039 15.4082 41.1719 15.3242 40.793 15.3242ZM51.2754 14.5859C51.4082 14.5859 51.502 14.6172 51.5566 14.6797C51.6152 14.7383 51.6445 14.8398 51.6445 14.9844C51.6445 15.1289 51.6152 15.2324 51.5566 15.2949C51.502 15.3535 51.4082 15.3828 51.2754 15.3828H51.1348L49.9805 19.748C49.9414 19.8887 49.8828 19.9863 49.8047 20.041C49.7305 20.0996 49.6191 20.1289 49.4707 20.1289C49.3027 20.1289 49.1699 20.0977 49.0723 20.0352C48.9785 19.9766 48.9082 19.8809 48.8613 19.748L47.9648 17.2051L47.0566 19.748C47.0098 19.8809 46.9355 19.9766 46.834 20.0352C46.7363 20.0977 46.6035 20.1289 46.4355 20.1289C46.2871 20.1289 46.1758 20.0996 46.1016 20.041C46.0273 19.9863 45.9727 19.8887 45.9375 19.748L44.8066 15.3828H44.7012C44.5684 15.3828 44.4727 15.3535 44.4141 15.2949C44.3594 15.2324 44.332 15.1289 44.332 14.9844C44.332 14.8398 44.3594 14.7383 44.4141 14.6797C44.4727 14.6172 44.5684 14.5859 44.7012 14.5859H46.4238C46.5566 14.5859 46.6504 14.6172 46.7051 14.6797C46.7637 14.7383 46.793 14.8398 46.793 14.9844C46.793 15.1289 46.7637 15.2324 46.7051 15.2949C46.6504 15.3535 46.5566 15.3828 46.4238 15.3828H45.7031L46.5469 18.793L47.5254 16.0742C47.5527 15.9922 47.6035 15.9258 47.6777 15.875C47.752 15.8242 47.8496 15.7988 47.9707 15.7988C48.2168 15.7988 48.3672 15.877 48.4219 16.0332L49.3945 18.793L50.2617 15.3828H49.6699C49.5371 15.3828 49.4414 15.3535 49.3828 15.2949C49.3281 15.2324 49.3008 15.1289 49.3008 14.9844C49.3008 14.8398 49.3281 14.7383 49.3828 14.6797C49.4414 14.6172 49.5371 14.5859 49.6699 14.5859H51.2754ZM55.8457 14.457C56.2012 14.457 56.5098 14.5352 56.7715 14.6914C57.0332 14.8438 57.2344 15.0645 57.375 15.3535C57.5156 15.6426 57.5859 15.9805 57.5859 16.3672V19.2031H58.0664C58.1992 19.2031 58.293 19.2344 58.3477 19.2969C58.4062 19.3555 58.4355 19.457 58.4355 19.6016C58.4355 19.7461 58.4062 19.8496 58.3477 19.9121C58.293 19.9707 58.1992 20 58.0664 20H56.168C56.0352 20 55.9395 19.9707 55.8809 19.9121C55.8262 19.8496 55.7988 19.7461 55.7988 19.6016C55.7988 19.457 55.8262 19.3555 55.8809 19.2969C55.9395 19.2344 56.0352 19.2031 56.168 19.2031H56.707V16.4551C56.707 16.1074 56.627 15.832 56.4668 15.6289C56.3066 15.4258 56.0703 15.3242 55.7578 15.3242C55.4258 15.3242 55.1152 15.4199 54.8262 15.6113C54.541 15.8027 54.3125 16.0664 54.1406 16.4023C53.9688 16.7383 53.8828 17.1133 53.8828 17.5273V19.2031H54.4219C54.5547 19.2031 54.6484 19.2344 54.7031 19.2969C54.7617 19.3555 54.791 19.457 54.791 19.6016C54.791 19.7461 54.7617 19.8496 54.7031 19.9121C54.6484 19.9707 54.5547 20 54.4219 20H52.5234C52.3906 20 52.2949 19.9707 52.2363 19.9121C52.1816 19.8496 52.1543 19.7461 52.1543 19.6016C52.1543 19.457 52.1816 19.3555 52.2363 19.2969C52.2949 19.2344 52.3906 19.2031 52.5234 19.2031H53.0039V15.3828H52.4062C52.2734 15.3828 52.1777 15.3535 52.1191 15.2949C52.0645 15.2324 52.0371 15.1289 52.0371 14.9844C52.0371 14.8398 52.0645 14.7383 52.1191 14.6797C52.1777 14.6172 52.2734 14.5859 52.4062 14.5859H53.4551C53.5879 14.5859 53.6816 14.6172 53.7363 14.6797C53.7949 14.7383 53.8242 14.8398 53.8242 14.9844V15.6875C54.082 15.2891 54.3828 14.9844 54.7266 14.7734C55.0742 14.5625 55.4473 14.457 55.8457 14.457ZM62.5312 12.3125C62.6641 12.3125 62.7578 12.3438 62.8125 12.4062C62.8711 12.4648 62.9004 12.5664 62.9004 12.7109V19.2031H64.7812C64.9141 19.2031 65.0078 19.2344 65.0625 19.2969C65.1211 19.3555 65.1504 19.457 65.1504 19.6016C65.1504 19.7461 65.1211 19.8496 65.0625 19.9121C65.0078 19.9707 64.9141 20 64.7812 20H60.1875C60.0547 20 59.959 19.9707 59.9004 19.9121C59.8457 19.8496 59.8184 19.7461 59.8184 19.6016C59.8184 19.457 59.8457 19.3555 59.9004 19.2969C59.959 19.2344 60.0547 19.2031 60.1875 19.2031H62.0215V13.1094H60.4219C60.2891 13.1094 60.1934 13.0801 60.1348 13.0215C60.0801 12.959 60.0527 12.8555 60.0527 12.7109C60.0527 12.5664 60.0801 12.4648 60.1348 12.4062C60.1934 12.3438 60.2891 12.3125 60.4219 12.3125H62.5312ZM69.5742 14.457C70.1094 14.457 70.5918 14.5781 71.0215 14.8203C71.4512 15.0625 71.7871 15.4004 72.0293 15.834C72.2754 16.2637 72.3984 16.75 72.3984 17.293C72.3984 17.8359 72.2754 18.3242 72.0293 18.7578C71.7871 19.1875 71.4512 19.5234 71.0215 19.7656C70.5918 20.0078 70.1094 20.1289 69.5742 20.1289C69.0391 20.1289 68.5566 20.0078 68.127 19.7656C67.6973 19.5234 67.3594 19.1875 67.1133 18.7578C66.8711 18.3242 66.75 17.8359 66.75 17.293C66.75 16.75 66.8711 16.2637 67.1133 15.834C67.3594 15.4004 67.6973 15.0625 68.127 14.8203C68.5566 14.5781 69.0391 14.457 69.5742 14.457ZM69.5742 15.3242C69.1953 15.3242 68.8613 15.4082 68.5723 15.5762C68.2871 15.7402 68.0664 15.9727 67.9102 16.2734C67.7539 16.5703 67.6758 16.9102 67.6758 17.293C67.6758 17.6758 67.7539 18.0176 67.9102 18.3184C68.0664 18.6152 68.2871 18.8477 68.5723 19.0156C68.8613 19.1797 69.1953 19.2617 69.5742 19.2617C69.9531 19.2617 70.2852 19.1797 70.5703 19.0156C70.8594 18.8477 71.082 18.6152 71.2383 18.3184C71.3945 18.0176 71.4727 17.6758 71.4727 17.293C71.4727 16.9102 71.3945 16.5703 71.2383 16.2734C71.082 15.9727 70.8594 15.7402 70.5703 15.5762C70.2852 15.4082 69.9531 15.3242 69.5742 15.3242ZM76.793 14.457C77.5273 14.457 78.0781 14.6211 78.4453 14.9492C78.8125 15.2773 78.9961 15.7637 78.9961 16.4082V18.7402C78.9961 19.0488 79.125 19.2031 79.3828 19.2031H79.5879C79.7207 19.2031 79.8145 19.2344 79.8691 19.2969C79.9277 19.3555 79.957 19.457 79.957 19.6016C79.957 19.7461 79.9277 19.8496 79.8691 19.9121C79.8145 19.9707 79.7207 20 79.5879 20H79.2129C78.959 20 78.7402 19.9375 78.5566 19.8125C78.377 19.6836 78.2598 19.4961 78.2051 19.25C77.8848 19.5312 77.5371 19.748 77.1621 19.9004C76.791 20.0527 76.3965 20.1289 75.9785 20.1289C75.584 20.1289 75.2344 20.0625 74.9297 19.9297C74.6289 19.793 74.3926 19.5957 74.2207 19.3379C74.0488 19.0801 73.9629 18.7734 73.9629 18.418C73.9629 17.8008 74.1836 17.3457 74.625 17.0527C75.0664 16.7559 75.6367 16.6074 76.3359 16.6074C76.957 16.6074 77.5508 16.707 78.1172 16.9062V16.4082C78.1172 16.0293 78.0098 15.752 77.7949 15.5762C77.584 15.3965 77.2422 15.3066 76.7695 15.3066C76.4766 15.3066 76.1719 15.3477 75.8555 15.4297C75.5391 15.5117 75.2383 15.625 74.9531 15.7695C74.8867 15.8047 74.8262 15.8223 74.7715 15.8223C74.6426 15.8223 74.5352 15.7285 74.4492 15.541C74.4062 15.4473 74.3848 15.3691 74.3848 15.3066C74.3848 15.1699 74.457 15.0645 74.6016 14.9902C74.9297 14.8184 75.2812 14.6875 75.6562 14.5977C76.0352 14.5039 76.4141 14.457 76.793 14.457ZM76.3418 17.4336C75.8926 17.4336 75.5371 17.5117 75.2754 17.668C75.0176 17.8203 74.8887 18.0645 74.8887 18.4004C74.8887 18.6855 74.9863 18.9082 75.1816 19.0684C75.3809 19.2246 75.6582 19.3027 76.0137 19.3027C76.791 19.3027 77.4922 18.9805 78.1172 18.3359V17.6973C77.8516 17.6113 77.5664 17.5469 77.2617 17.5039C76.957 17.457 76.6504 17.4336 76.3418 17.4336ZM86.0098 12.3125C86.1426 12.3125 86.2363 12.3438 86.291 12.4062C86.3496 12.4648 86.3789 12.5664 86.3789 12.7109V19.2031H86.8594C86.9922 19.2031 87.0859 19.2344 87.1406 19.2969C87.1992 19.3555 87.2285 19.457 87.2285 19.6016C87.2285 19.7461 87.1992 19.8496 87.1406 19.9121C87.0859 19.9707 86.9922 20 86.8594 20H85.9277C85.7949 20 85.6992 19.9707 85.6406 19.9121C85.5859 19.8496 85.5586 19.7461 85.5586 19.6016V19.1328C85.3125 19.4531 85.0273 19.6992 84.7031 19.8711C84.3789 20.043 84.0254 20.1289 83.6426 20.1289C83.1582 20.1289 82.7246 20.0156 82.3418 19.7891C81.959 19.5586 81.6582 19.2305 81.4395 18.8047C81.2207 18.375 81.1113 17.8711 81.1113 17.293C81.1113 16.7148 81.2207 16.2129 81.4395 15.7871C81.6582 15.3574 81.959 15.0293 82.3418 14.8027C82.7246 14.5723 83.1582 14.457 83.6426 14.457C84.377 14.457 84.9961 14.7793 85.5 15.4238V13.1094H84.5508C84.418 13.1094 84.3223 13.0801 84.2637 13.0215C84.209 12.959 84.1816 12.8555 84.1816 12.7109C84.1816 12.5664 84.209 12.4648 84.2637 12.4062C84.3223 12.3438 84.418 12.3125 84.5508 12.3125H86.0098ZM83.7012 15.3242C83.3535 15.3242 83.0547 15.4082 82.8047 15.5762C82.5547 15.7402 82.3633 15.9707 82.2305 16.2676C82.1016 16.5645 82.0371 16.9062 82.0371 17.293C82.0371 17.6797 82.1016 18.0215 82.2305 18.3184C82.3633 18.6152 82.5547 18.8477 82.8047 19.0156C83.0547 19.1797 83.3535 19.2617 83.7012 19.2617C84.0488 19.2617 84.3574 19.1836 84.627 19.0273C84.9004 18.8711 85.1133 18.6445 85.2656 18.3477C85.4219 18.0508 85.5 17.6992 85.5 17.293C85.5 16.8867 85.4219 16.5352 85.2656 16.2383C85.1133 15.9414 84.9004 15.7148 84.627 15.5586C84.3574 15.4023 84.0488 15.3242 83.7012 15.3242Z" fill="white"/>
</g>
<defs>
<clipPath id="clip0_18_131">
<path d="M0 16.5C0 7.3873 7.3873 0 16.5 0H82.5C91.6127 0 99 7.3873 99 16.5C99 25.6127 91.6127 33 82.5 33H16.5C7.3873 33 0 25.6127 0 16.5Z" fill="white"/>
</clipPath>
</defs>
</svg>
